<svg width="30" height="31" viewBox="0 0 30 31" fill="none" xmlns="http://www.w3.org/2000/svg">
<path d="M10 19.25H20M12.5 28H17.5H12.5ZM6.25 11.75C6.25 9.42936 7.17187 7.20376 8.81282 5.56282C10.4538 3.92187 12.6794 3 15 3C17.3206 3 19.5462 3.92187 21.1872 5.56282C22.8281 7.20376 23.75 9.42936 23.75 11.75C23.7508 13.1588 23.4101 14.5469 22.757 15.7952C22.1039 17.0435 21.1579 18.1149 20 18.9175L19.3225 22.125C19.2328 22.7162 18.9342 23.2557 18.4808 23.6456C18.0274 24.0354 17.4492 24.2499 16.8513 24.25H13.1488C12.5508 24.2499 11.9726 24.0354 11.5192 23.6456C11.0658 23.2557 10.7672 22.7162 10.6775 22.125L10 18.9313C8.84176 18.1258 7.89572 17.0519 7.24269 15.8014C6.58967 14.5508 6.24907 13.1608 6.25 11.75V11.75Z" stroke="white" stroke-width="2" stroke-linecap="round" stroke-linejoin="round"/>
</svg>
